<svg width="36" height="36" viewBox="0 0 36 36" fill="none" xmlns="http://www.w3.org/2000/svg">
<path d="M19.1653 24.3414L23.7413 19.7653C24.064 19.4427 24.2253 19.032 24.2253 18.5333C24.2253 18.0347 24.064 17.624 23.7413 17.3013L19.1213 12.6814C18.7987 12.3587 18.3956 12.2044 17.9122 12.2185C17.4276 12.2337 17.024 12.4027 16.7013 12.7253C16.3787 13.048 16.2173 13.4587 16.2173 13.9573C16.2173 14.456 16.3787 14.8667 16.7013 15.1894L18.2853 16.7733H12.6093C12.1107 16.7733 11.7 16.9417 11.3773 17.2785C11.0547 17.6164 10.8933 18.0347 10.8933 18.5333C10.8933 19.032 11.0623 19.4497 11.4002 19.7865C11.737 20.1244 12.1547 20.2933 12.6533 20.2933H18.2853L16.6573 21.9214C16.3347 22.244 16.1804 22.6476 16.1945 23.1322C16.2097 23.6156 16.3787 24.0187 16.7013 24.3414C17.024 24.664 17.4347 24.8253 17.9333 24.8253C18.432 24.8253 18.8427 24.664 19.1653 24.3414ZM17.9333 36.1334C15.4987 36.1334 13.2107 35.6711 11.0693 34.7465C8.928 33.8231 7.06533 32.5694 5.48133 30.9854C3.89733 29.4014 2.64362 27.5387 1.72021 25.3973C0.795625 23.256 0.333331 20.968 0.333331 18.5333C0.333331 16.0987 0.795625 13.8107 1.72021 11.6693C2.64362 9.52802 3.89733 7.66535 5.48133 6.08135C7.06533 4.49735 8.928 3.24306 11.0693 2.31847C13.2107 1.39506 15.4987 0.93335 17.9333 0.93335C20.368 0.93335 22.656 1.39506 24.7973 2.31847C26.9387 3.24306 28.8013 4.49735 30.3853 6.08135C31.9693 7.66535 33.223 9.52802 34.1464 11.6693C35.071 13.8107 35.5333 16.0987 35.5333 18.5333C35.5333 20.968 35.071 23.256 34.1464 25.3973C33.223 27.5387 31.9693 29.4014 30.3853 30.9854C28.8013 32.5694 26.9387 33.8231 24.7973 34.7465C22.656 35.6711 20.368 36.1334 17.9333 36.1334Z" fill="#FFFAFA"/>
</svg>
